Coordinates
version=1
nRows=11
nColumns=36
inDegrees=yes

Units are S.I. units (second, meters, Newtons, ...)
If the header above contains a line with 'inDegrees', this indicates whether rotational values are in degrees (yes) or radians (no).

endheader
time	pelvis_tilt	pelvis_list	pelvis_rotation	pelvis_tx	pelvis_ty	pelvis_tz	hip_flexion_r	hip_adduction_r	hip_rotation_r	knee_angle_r	knee_angle_r_beta	ankle_angle_r	subtalar_angle_r	mtp_angle_r	hip_flexion_l	hip_adduction_l	hip_rotation_l	knee_angle_l	knee_angle_l_beta	ankle_angle_l	subtalar_angle_l	mtp_angle_l	lumbar_extension	lumbar_bending	lumbar_rotation	arm_flex_r	arm_add_r	arm_rot_r	elbow_flex_r	pro_sup_r	arm_flex_l	arm_add_l	arm_rot_l	elbow_flex_l	pro_sup_l
      1.61000000	    -20.34941568	     -2.86086450	     -2.03556059	     -0.22922166	      0.73331645	     -0.59543870	     70.06665742	     -3.50427950	     -1.56295178	     84.64975727	      1.47741698	     34.52415102	     -2.93393187	     -7.50743331	     71.86545755	     -4.70627194	      8.50553530	     87.70034308	      1.53065974	     26.67929904	    -13.22461450	     -7.50743331	    -27.71100761	     -1.90071408	     -1.23279386	     34.71295497	    -16.30837853	     -6.07879463	    132.51151326	      4.98438810	     57.17886128	    -25.31874533	     18.77463314	    121.79061443	    113.52683436
      1.62000000	    -20.25137673	     -2.84084221	     -2.27873931	     -0.22541761	      0.74113158	     -0.59524651	     68.83318523	     -3.29527546	     -1.64211129	     83.15805688	      1.45138189	     34.19149084	     -2.70249296	     -7.50736955	     70.51780313	     -4.91824278	      8.31207155	     86.27938297	      1.50585931	     26.65531733	    -13.13289420	     -7.50736955	    -26.93901248	     -1.88642316	     -1.12668515	     33.82654747	    -17.25957041	     -6.54664654	    134.03541756	      5.09684979	     56.12079789	    -26.50241492	     19.24509472	    123.43525129	    113.71877877
      1.63000000	    -20.09282095	     -2.78292003	     -2.52539584	     -0.22144022	      0.74975536	     -0.59520584	     67.48851545	     -3.13851355	     -1.70449946	     81.54291422	      1.42319233	     33.68236511	     -2.54712619	     -7.50731400	     68.98486994	     -5.09302833	      8.05614389	     84.67780577	      1.47790651	     26.48525754	    -13.14871915	     -7.50731400	    -26.06066956	     -1.86298488	     -1.01363696	     32.81676182	    -18.36038269	     -7.01992838	    135.64779006	      5.15583670	     54.96629875	    -27.90581117	     19.87422346	    125.14462004	    113.90180279
      1.64000000	    -19.87806712	     -2.73645463	     -2.67817296	     -0.21733780	      0.75918117	     -0.59559499	     65.99165482	     -3.12112157	     -1.83200437	     79.77507914	      1.39233779	     32.95097620	     -2.42271105	     -7.50725219	     67.30360922	     -5.13005093	      7.83615189	     82.87858469	      1.44650418	     26.15386638	    -13.30261079	     -7.50725219	    -25.16867138	     -1.74503835	     -0.99115851	     31.77032481	    -19.69969863	     -7.60790527	    137.51692112	      5.18169085	     53.77283351	    -29.56984446	     20.70880587	    127.22115182	    114.04243947
      1.65000000	    -19.60413885	     -2.70962984	     -2.77886178	     -0.21298960	      0.76944756	     -0.59608646	     64.31659031	     -3.17248279	     -2.05393883	     77.82149792	      1.35824137	     32.08282005	     -2.29817873	     -7.50719056	     65.46315662	     -5.12037006	      7.67585225	     80.86923325	      1.41143438	     25.63938240	    -13.53735423	     -7.50719056	    -24.20333713	     -1.60931723	     -1.01492416	     30.62393881	    -21.23520395	     -8.21325217	    139.44830589	      5.22630153	     52.42682127	    -31.28460947	     21.50046025	    129.51815439	    114.12481243
      1.66000000	    -19.24762485	     -2.66490671	     -2.95467296	     -0.20834443	      0.78069479	     -0.59637134	     62.45837718	     -3.18733470	     -2.28725154	     75.65365734	      1.32040541	     31.01403772	     -2.17675218	     -7.50712579	     63.40830007	     -5.21869775	      7.40208861	     78.63865576	      1.37250346	     24.90108901	    -13.84624746	     -7.50712579	    -23.22890686	     -1.52573420	     -0.95229249	     29.38547024	    -22.92388513	     -8.78617175	    141.49352712	      5.28046959	     50.96673845	    -33.05637737	     22.06807256	    132.03893490	    114.18319228
      1.67000000	    -18.85531989	     -2.56691841	     -3.19053393	     -0.20344830	      0.79290531	     -0.59658987	     60.45731496	     -3.20180610	     -2.48606199	     73.25374111	      1.27851897	     29.83148771	     -1.99240013	     -7.50706914	     61.18268294	     -5.35785615	      7.01172833	     76.17303713	      1.32947030	     23.99380379	    -14.04571384	     -7.50706914	    -22.10160345	     -1.53421334	     -0.89573929	     28.03570393	    -24.70647225	     -9.39434493	    143.38884985	      5.34109154	     49.29979017	    -34.84189548	     22.46779753	    134.42970166	    114.25175817
      1.68000000	    -18.34721027	     -2.48131378	     -3.44375618	     -0.19849176	      0.80636288	     -0.59677801	     58.20056905	     -3.19936124	     -2.73139403	     70.54213039	      1.23119244	     27.93750888	     -2.13859442	     -7.50695094	     58.75854894	     -5.54037763	      6.55346702	     73.45319336	      1.28200007	     22.21959709	    -14.75679920	     -7.50695094	    -21.15192344	     -1.51053376	     -0.80007307	     26.79427074	    -26.59109503	    -10.37543733	    145.38913728	      5.37584774	     47.55429309	    -36.75417159	     22.37800166	    136.94938130	    114.11357450
      1.69000000	    -18.10209900	     -2.41847652	     -3.85684404	     -0.19325677	      0.82022440	     -0.59627171	     56.10313827	     -3.00316515	     -2.96207894	     67.56811153	      1.17928602	     26.46864388	     -1.81839322	     -7.50689393	     56.54215042	     -6.05065559	      5.89445550	     70.60274707	      1.23225040	     20.88828353	    -14.52335999	     -7.50689393	    -19.65456788	     -1.60001975	     -0.52409315	     25.07245484	    -28.52224428	    -11.09812256	    147.07896691	      5.45765879	     45.49823310	    -38.57364101	     22.56034986	    139.16785702	    114.20295277
      1.70000000	    -17.77556437	     -2.41502694	     -4.38670669	     -0.18795505	      0.83528920	     -0.59529983	     53.77716216	     -2.62127415	     -3.16856120	     64.18892943	      1.12030816	     23.77554026	     -2.15683001	     -7.50675380	     54.13602406	     -6.78248782	      5.01398391	     67.45937119	      1.17738814	     18.52599179	    -14.72141252	     -7.50675380	    -18.29484476	     -1.66339524	     -0.12081546	     23.39358042	    -30.41890768	    -11.94474009	    148.44732744	      5.69779246	     43.13783542	    -40.43290181	     21.96222961	    141.33623919	    113.99169482
      1.71000000	    -17.55613668	     -2.31817089	     -4.83519543	     -0.18231671	      0.85118366	     -0.59467954	     51.40817375	     -2.42494409	     -3.33875833	     60.54535600	      1.05671581	     21.74964311	     -1.65991312	     -7.50668913	     51.66923664	     -7.39373988	      3.91648412	     63.96083717	      1.11632720	     16.75887770	    -14.07671379	     -7.50668913	    -16.60024598	     -1.78585350	      0.11440546	     21.49578952	    -32.34264908	    -12.27821017	    149.12535540	      5.91739935	     40.47366922	    -42.23015641	     21.99088393	    143.10527562	    113.97686207
